<svg width="161" height="64" viewBox="0 0 161 64" fill="none" xmlns="http://www.w3.org/2000/svg">
<g clip-path="url(#clip0_769_1494)">
<g clip-path="url(#clip1_769_1494)">
<mask id="mask0_769_1494" style="mask-type:luminance" maskUnits="userSpaceOnUse" x="0" y="0" width="161" height="64">
<path d="M160.998 0.459961H0V63.54H160.998V0.459961Z" fill="white"/>
</mask>
<g mask="url(#mask0_769_1494)">
<path d="M18.6522 42.555C23.7501 39.7 29.5096 38.2372 35.352 38.3138C41.1949 38.3914 46.9144 40.006 51.9353 42.9953C54.0862 44.2556 56.0809 45.7655 57.8778 47.4935L59.4605 45.9107C55.0382 41.6037 49.5605 38.5361 43.5774 37.016C37.5908 35.4954 31.3094 35.5775 25.3646 37.2541C19.7504 38.8405 14.6171 41.7939 10.4238 45.85L12.0175 47.4437C14.009 45.5349 16.2411 43.8941 18.6572 42.563" fill="currentColor"/>
<path d="M20.6493 55.9989C23.8735 52.8582 28.044 50.8691 32.5138 50.3402C36.9837 49.8113 41.5032 50.772 45.3714 53.0735C46.7966 53.9086 48.1096 54.9217 49.2789 56.0885L50.4741 54.8933C50.3759 54.795 50.2763 54.6974 50.1753 54.6004C46.7263 51.2406 42.265 49.1127 37.4834 48.5469C32.7018 47.981 27.8671 49.0088 23.7291 51.4708C22.1456 52.3989 20.6917 53.5323 19.4053 54.8415L20.6055 56.0417L20.6444 56.0029" fill="currentColor"/>
<path d="M42.3361 42.3769C34.5868 40.4085 26.373 41.5991 19.5016 45.6868C17.5975 46.8032 15.8284 48.1355 14.2295 49.6571L16.0453 51.4729C16.1409 51.3779 16.2375 51.2837 16.3352 51.19C21.3926 46.2629 28.2 43.5464 35.2601 43.638C42.2464 43.7293 48.9169 46.5625 53.8335 51.5267L55.6493 49.7099C51.9088 46.1688 47.3243 43.6437 42.3321 42.375" fill="currentColor"/>
<path d="M62.9194 41.2315C57.8725 36.3152 51.6202 32.8143 44.7912 31.0807C37.9632 29.3464 30.7989 29.4402 24.0185 31.3526C17.3258 33.2408 11.2381 36.8347 6.35156 41.7823L8.40443 43.8352C13.1833 39.1923 19.0975 35.8857 25.5555 34.2462C32.0274 32.6031 38.8178 32.692 45.2444 34.5041C51.3521 36.23 56.9325 39.4526 61.4801 43.88L63.5309 41.8301C63.3317 41.6276 63.1279 41.4284 62.9194 41.2325" fill="currentColor"/>
<path d="M5.38457 39.6616C8.01767 37.0623 10.9963 34.8381 14.2365 33.0518C17.4521 31.2227 20.9043 29.8452 24.4958 28.958C28.0759 28.0249 31.7674 27.5892 35.4663 27.6632C39.1664 27.6875 42.8455 28.221 46.4 29.2489C53.4774 31.2451 59.9126 35.0504 65.072 40.2901L67.3729 37.9893L67.2295 37.8508C64.3484 35.0052 61.0885 32.5708 57.5419 30.6165C54.0221 28.6142 50.2435 27.106 46.3124 26.1342C42.3945 25.1115 38.3544 24.6333 34.306 24.7129C30.2567 24.7394 26.2304 25.3232 22.3404 26.448C18.4358 27.5214 14.6977 29.1275 11.2314 31.2211C8.05214 33.0841 5.11883 35.3381 2.5 37.9305L4.80188 40.2324C4.99312 40.0411 5.18635 39.8515 5.38158 39.6636" fill="currentColor"/>
<path d="M11.6817 29.5377C15.2946 27.4829 19.1731 25.9352 23.208 24.9379C27.2316 23.8877 31.3806 23.3966 35.5382 23.4787C39.6954 23.5061 43.829 24.1061 47.8225 25.2617C51.8313 26.3635 55.6693 28.0122 59.2283 30.1612C62.5172 32.0902 65.5496 34.4264 68.2535 37.1147L69.9358 35.4314L34.9684 0.459961L0 35.4284L1.63452 37.0629L1.73413 36.9633C4.69283 34.0424 8.03982 31.5431 11.6807 29.5357" fill="currentColor"/>
<path d="M30.9029 56.3195C33.4512 55.6777 36.1159 55.6547 38.6749 56.2525C41.2338 56.8503 43.6126 58.0515 45.6126 59.7559L46.1485 59.22L46.0977 59.1702C43.1041 56.2585 39.0927 54.6294 34.9165 54.6294C30.7404 54.6294 26.729 56.2585 23.7354 59.1702L24.2991 59.734C26.2129 58.1117 28.4709 56.9464 30.9019 56.3265" fill="currentColor"/>
<path d="M32.1311 61.5857C33.7907 61.17 35.522 61.1297 37.1991 61.4678C38.8762 61.8059 40.4568 62.5137 41.8257 63.5399L42.236 63.1295C40.169 61.4815 37.6048 60.5819 34.9612 60.5774C32.3176 60.5729 29.7504 61.4637 27.6777 63.1046L28.0881 63.515C29.2978 62.615 30.6705 61.9597 32.1311 61.5857Z" fill="currentColor"/>
<path d="M76.1296 35.531C76.0813 33.9109 76.3689 32.2983 76.9743 30.7948C77.3932 29.8558 77.9753 28.9986 78.6935 28.2628C79.3685 27.5511 80.182 26.9851 81.084 26.5994C82.3495 26.0906 83.7046 25.8423 85.0682 25.8693C86.2732 25.8137 87.4766 26.0102 88.6014 26.4462C89.7262 26.8822 90.7476 27.5481 91.6003 28.4013C93.185 30.3979 94.049 32.8711 94.0524 35.4202C94.0558 37.9692 93.1985 40.4447 91.6192 42.4456C90.772 43.297 89.756 43.9616 88.6365 44.3966C87.517 44.8317 86.3188 45.0275 85.119 44.9716C83.9124 45.031 82.7066 44.8382 81.5786 44.4055C80.4507 43.9728 79.4253 43.3097 78.568 42.4586C77.7257 41.5224 77.0772 40.4286 76.6599 39.2405C76.2426 38.0523 76.0648 36.7933 76.1366 35.536M79.9794 35.4105C79.8567 37.1204 80.3731 38.8149 81.4286 40.1657C81.8943 40.6747 82.4606 41.0815 83.0917 41.3602C83.7228 41.6389 84.4049 41.7834 85.0947 41.7846C85.7846 41.7859 86.4673 41.6437 87.0993 41.3673C87.7314 41.0908 88.2991 40.686 88.7666 40.1786C89.8185 38.8022 90.3276 37.0871 90.1969 35.3597C90.3279 33.6634 89.8317 31.9781 88.8024 30.6235C88.3203 30.1275 87.7433 29.7335 87.1058 29.4651C86.4683 29.1967 85.7833 29.0593 85.0916 29.061C84.3999 29.0628 83.7156 29.2037 83.0795 29.4754C82.4433 29.747 81.8684 30.1439 81.3888 30.6424C80.3483 32.0043 79.8458 33.7017 79.9774 35.4105" fill="currentColor"/>
<path d="M95.2266 44.6509L100.051 37.7602L95.4288 31.2729H99.7496L102.118 34.9514L104.608 31.2729H108.766L104.231 37.6098L109.181 44.6519H104.835L102.115 40.5064L99.3691 44.6509H95.2266Z" fill="currentColor"/>
<path d="M111.125 44.6519V26.1841H114.666V32.8357C115.134 32.2555 115.726 31.787 116.398 31.4645C117.07 31.1419 117.805 30.9733 118.551 30.9711C119.313 30.9525 120.07 31.1014 120.769 31.4072C121.468 31.7131 122.091 32.1684 122.595 32.7411C123.746 34.1739 124.317 35.987 124.194 37.821C124.319 39.7215 123.738 41.6013 122.563 43.1C122.081 43.6837 121.476 44.1528 120.79 44.4731C120.105 44.7934 119.357 44.9569 118.6 44.9517C117.812 44.9453 117.036 44.7485 116.339 44.378C115.572 43.9758 114.913 43.395 114.418 42.6847V44.6499L111.125 44.6519ZM114.64 37.6725C114.566 38.7384 114.793 39.8036 115.295 40.7464C115.541 41.1767 115.897 41.534 116.326 41.7818C116.756 42.0296 117.243 42.159 117.739 42.1568C118.126 42.155 118.507 42.0638 118.852 41.8901C119.198 41.7164 119.499 41.4651 119.731 41.1557C120.356 40.2279 120.647 39.1152 120.556 38.0003C120.656 36.836 120.363 35.6716 119.724 34.6933C119.472 34.3704 119.149 34.1107 118.78 33.9346C118.41 33.7586 118.005 33.6712 117.595 33.6794C117.191 33.6729 116.79 33.7586 116.423 33.93C116.056 34.1013 115.733 34.3539 115.479 34.6685C114.852 35.5387 114.553 36.603 114.635 37.6725" fill="currentColor"/>
<path d="M126.217 37.776C126.221 36.5836 126.52 35.4107 127.086 34.3615C127.635 33.293 128.494 32.415 129.55 31.8425C130.643 31.2552 131.868 30.956 133.108 30.973C134.03 30.9402 134.948 31.0984 135.805 31.4376C136.662 31.7768 137.44 32.2898 138.089 32.9442C138.731 33.6006 139.234 34.3802 139.568 35.2361C139.901 36.0919 140.058 37.0064 140.029 37.9244C140.058 38.852 139.899 39.776 139.563 40.6408C139.226 41.5057 138.718 42.2936 138.07 42.9575C137.43 43.6124 136.662 44.1275 135.813 44.4704C134.964 44.8133 134.053 44.9765 133.138 44.9496C131.92 44.9513 130.718 44.6664 129.63 44.1179C128.549 43.5932 127.66 42.7402 127.092 41.6805C126.48 40.4698 126.181 39.125 126.223 37.769M129.85 37.9573C129.776 39.0556 130.112 40.1424 130.795 41.0062C131.084 41.3386 131.442 41.6051 131.844 41.7876C132.245 41.9702 132.681 42.0647 133.122 42.0647C133.563 42.0647 133.999 41.9702 134.4 41.7876C134.802 41.6051 135.159 41.3386 135.449 41.0062C136.13 40.1323 136.464 39.0376 136.387 37.9324C136.46 36.843 136.125 35.7656 135.449 34.9084C135.159 34.576 134.802 34.3095 134.4 34.127C133.999 33.9444 133.563 33.8499 133.122 33.8499C132.681 33.8499 132.245 33.9444 131.844 34.127C131.442 34.3095 131.084 34.576 130.795 34.9084C130.112 35.7722 129.776 36.859 129.85 37.9573Z" fill="currentColor"/>
<path d="M145.289 44.6509L141.061 31.2729H144.5L147.007 40.0382L149.312 31.2729H152.726L154.955 40.0382L157.512 31.2729H160.998L156.699 44.6509H153.297L150.992 36.047L148.724 44.6509H145.289Z" fill="currentColor"/>
</g>
</g>
</g>
<defs>
<clipPath id="clip0_769_1494">
<rect width="160.998" height="63.08" fill="white" transform="translate(0 0.459961)"/>
</clipPath>
<clipPath id="clip1_769_1494">
<rect width="160.998" height="63.08" fill="white" transform="translate(0 0.459961)"/>
</clipPath>
</defs>
</svg>
