<?xml version="1.0" standalone="no"?>
<!DOCTYPE svg PUBLIC "-//W3C//DTD SVG 20010904//EN"
 "http://www.w3.org/TR/2001/REC-SVG-20010904/DTD/svg10.dtd">
<svg version="1.0" xmlns="http://www.w3.org/2000/svg"
 width="271.000000pt" height="93.000000pt" viewBox="0 0 271.000000 93.000000"
 preserveAspectRatio="xMidYMid meet">

<g transform="translate(0.000000,93.000000) scale(0.100000,-0.100000)"
fill="#000000" stroke="none">
<path d="M356 714 c-88 -93 -185 -195 -215 -226 -54 -57 -66 -96 -13 -45 45
42 142 96 217 120 90 28 242 29 330 3 71 -21 176 -76 223 -117 18 -16 38 -29
43 -29 11 0 -99 120 -320 352 l-106 111 -159 -169z"/>
<path d="M1060 638 c-61 -32 -75 -134 -24 -185 20 -20 32 -24 71 -21 61 4 88
38 88 109 0 38 -5 54 -25 74 -31 30 -77 40 -110 23z m78 -41 c54 -65 -13 -177
-71 -118 -28 27 -28 98 -1 118 23 16 58 17 72 0z"/>
<path d="M1390 537 l0 -103 56 -2 c54 -1 55 -1 70 34 29 69 -16 141 -71 116
-24 -11 -25 -10 -25 23 0 24 -5 35 -15 35 -12 0 -15 -18 -15 -103z m96 -13 c8
-29 -1 -53 -21 -60 -37 -15 -61 49 -30 80 20 20 44 10 51 -20z"/>
<path d="M1593 580 c-45 -18 -58 -95 -23 -130 51 -51 138 -3 126 69 -3 19 -11
40 -18 47 -18 18 -59 25 -85 14z m63 -57 c8 -30 -5 -56 -31 -61 -21 -5 -35 14
-35 49 0 32 7 39 36 39 17 0 25 -7 30 -27z"/>
<path d="M1240 545 l22 -35 -21 -36 c-26 -43 -26 -44 -1 -44 10 0 25 10 31 22
l12 22 18 -23 c11 -13 27 -21 39 -19 20 3 20 4 -5 41 l-26 37 20 29 c12 16 21
32 21 35 0 14 -40 5 -49 -11 -10 -17 -12 -17 -25 0 -7 9 -23 17 -35 17 l-23 0
22 -35z"/>
<path d="M1734 508 c17 -58 26 -73 41 -73 14 0 22 10 28 38 12 48 24 47 32 -4
6 -33 11 -40 27 -37 15 2 25 18 39 63 23 73 23 85 4 85 -9 0 -20 -19 -29 -47
l-14 -48 -12 48 c-9 34 -17 47 -31 47 -13 0 -22 -13 -31 -47 l-14 -48 -12 48
c-9 35 -17 47 -31 47 -19 0 -19 -2 3 -72z"/>
<path d="M389 549 c-89 -21 -228 -95 -267 -142 -26 -31 10 -29 51 2 211 158
466 159 680 3 33 -24 52 -31 59 -24 7 7 -6 23 -41 50 -63 50 -137 87 -216 107
-63 16 -206 19 -266 4z"/>
<path d="M375 481 c-70 -20 -122 -46 -184 -91 l-44 -32 21 -20 20 -21 39 31
c93 75 195 107 316 100 99 -6 172 -32 246 -89 54 -41 54 -41 74 -21 19 20 19
20 -24 52 -140 102 -311 136 -464 91z"/>
<path d="M450 420 c-70 -13 -130 -37 -187 -76 -54 -37 -62 -51 -42 -71 8 -8
28 0 76 33 35 24 89 51 120 60 110 32 244 2 342 -75 29 -23 41 -27 49 -19 22
22 13 37 -41 73 -95 63 -220 93 -317 75z"/>
<path d="M387 326 c-57 -24 -127 -70 -127 -85 0 -4 5 -12 11 -18 9 -9 21 -4
48 17 118 95 259 96 394 3 28 -20 41 -23 49 -15 18 18 -23 55 -95 88 -88 40
-199 44 -280 10z"/>
<path d="M1010 260 l0 -91 67 3 c64 3 68 5 77 31 8 21 6 31 -6 43 -12 13 -13
22 -5 44 17 44 -3 60 -74 60 l-59 0 0 -90z m105 40 c0 -10 -12 -16 -32 -18
-28 -3 -33 0 -33 18 0 18 5 21 33 18 20 -2 32 -8 32 -18z m3 -77 c3 -20 -1
-23 -32 -23 -32 0 -36 3 -36 26 0 23 3 25 33 22 24 -2 33 -8 35 -25z"/>
<path d="M1560 335 c0 -8 7 -15 15 -15 8 0 15 7 15 15 0 8 -7 15 -15 15 -8 0
-15 -7 -15 -15z"/>
<path d="M1630 260 c0 -73 3 -90 15 -90 12 0 15 17 15 90 0 73 -3 90 -15 90
-12 0 -15 -17 -15 -90z"/>
<path d="M1770 260 l0 -90 65 0 c51 0 65 3 65 15 0 11 -12 15 -50 15 -47 0
-50 2 -50 25 0 23 4 25 45 25 33 0 45 4 45 15 0 11 -12 15 -45 15 -38 0 -45 3
-45 19 0 17 8 20 47 23 26 2 48 9 51 16 3 9 -14 12 -62 12 l-66 0 0 -90z"/>
<path d="M2470 335 c0 -8 7 -15 15 -15 8 0 15 7 15 15 0 8 -7 15 -15 15 -8 0
-15 -7 -15 -15z"/>
<path d="M1190 234 c0 -50 3 -64 15 -64 11 0 15 12 15 45 0 39 3 47 25 55 38
14 30 29 -15 28 l-40 0 0 -64z"/>
<path d="M1291 286 c-17 -20 3 -30 28 -14 16 10 23 10 32 1 10 -10 9 -13 -2
-17 -66 -24 -69 -26 -69 -50 0 -30 32 -51 57 -38 9 5 24 7 34 5 17 -5 19 1 19
45 0 28 -3 57 -6 66 -8 20 -77 22 -93 2z m69 -60 c0 -16 -14 -36 -25 -36 -20
0 -30 21 -14 31 15 9 39 12 39 5z"/>
<path d="M1424 286 c-11 -28 1 -51 32 -61 17 -5 32 -14 33 -20 3 -15 -30 -19
-39 -5 -5 8 -15 10 -26 6 -18 -7 -17 -9 5 -27 28 -23 49 -24 79 -3 35 24 28
53 -18 71 -50 20 -53 38 -4 28 28 -5 35 -3 32 7 -7 19 -87 23 -94 4z"/>
<path d="M1560 235 c0 -51 3 -65 15 -65 12 0 15 14 15 65 0 51 -3 65 -15 65
-12 0 -15 -14 -15 -65z"/>
<path d="M1930 233 c0 -57 2 -63 21 -63 17 0 19 5 16 40 -2 24 1 47 9 58 13
16 15 16 29 -2 8 -11 15 -37 15 -58 0 -27 4 -38 15 -38 11 0 15 12 15 53 0 28
-4 57 -8 64 -4 7 -29 11 -60 11 l-52 -1 0 -64z"/>
<path d="M2092 288 c-31 -40 -20 -100 22 -120 20 -9 30 -8 52 7 18 12 23 20
15 28 -7 7 -15 6 -25 -3 -17 -13 -46 -7 -46 10 0 5 18 10 40 10 34 0 40 3 40
21 0 39 -19 59 -54 59 -19 0 -38 -6 -44 -12z m66 -25 c2 -8 -6 -13 -22 -13
-25 0 -33 10 -19 24 10 10 36 3 41 -11z"/>
<path d="M2220 234 c0 -50 3 -64 15 -64 11 0 15 11 15 38 0 42 7 56 33 65 31
11 18 26 -23 25 l-40 0 0 -64z"/>
<path d="M2320 280 c-28 -53 4 -117 55 -108 17 4 25 1 25 -9 0 -20 -22 -25
-53 -14 -21 8 -27 7 -27 -2 0 -33 51 -48 91 -27 16 9 19 22 19 94 l0 83 -50 2
c-39 0 -52 -3 -60 -19z m70 -14 c18 -23 8 -61 -17 -64 -26 -4 -39 28 -23 58
13 24 23 25 40 6z"/>
<path d="M2470 235 c0 -51 3 -65 15 -65 12 0 15 14 15 65 0 51 -3 65 -15 65
-12 0 -15 -14 -15 -65z"/>
<path d="M2541 286 c-16 -19 4 -32 24 -16 15 13 45 7 45 -8 0 -5 -17 -13 -37
-18 -31 -7 -39 -14 -41 -36 -4 -32 28 -55 55 -40 9 5 24 7 35 4 17 -4 19 1 16
59 l-3 64 -41 3 c-27 2 -45 -2 -53 -12z m69 -70 c0 -19 -17 -29 -37 -22 -12 5
-13 9 -3 21 16 19 40 19 40 1z"/>
<path d="M417 245 c-30 -12 -69 -34 -106 -61 -2 -2 -1 -10 3 -19 5 -13 15 -10
63 17 52 30 66 33 138 33 71 0 87 -4 137 -31 47 -26 59 -29 69 -18 8 10 1 20
-37 44 -27 17 -64 35 -84 40 -49 14 -138 11 -183 -5z"/>
<path d="M448 166 c-50 -18 -90 -45 -83 -56 3 -5 30 3 61 17 66 30 128 28 193
-5 25 -14 43 -18 47 -11 8 14 -21 35 -75 54 -54 18 -94 19 -143 1z"/>
<path d="M441 84 c-42 -18 -36 -28 8 -13 32 11 121 8 154 -6 9 -4 17 -3 17 2
0 13 -69 33 -111 33 -19 -1 -49 -7 -68 -16z"/>
</g>
</svg>
